<svg id="copy_1_" data-name="copy (1)" xmlns="http://www.w3.org/2000/svg" width="19.667" height="19.667" viewBox="0 0 19.667 19.667">
  <g id="Group_1247" data-name="Group 1247" transform="translate(0 3.512)">
    <g id="Group_1246" data-name="Group 1246">
      <path id="Path_6305" data-name="Path 6305" d="M14.048,85.333H2.107A2.107,2.107,0,0,0,0,87.44V99.381a2.107,2.107,0,0,0,2.107,2.107H14.048a2.107,2.107,0,0,0,2.107-2.107V87.44A2.107,2.107,0,0,0,14.048,85.333Zm.7,14.048a.7.7,0,0,1-.7.7H2.107a.7.7,0,0,1-.7-.7V87.44a.7.7,0,0,1,.7-.7H14.048a.7.7,0,0,1,.7.7Z" transform="translate(0 -85.333)" fill="#606060"/>
    </g>
  </g>
  <g id="Group_1249" data-name="Group 1249" transform="translate(2.81)">
    <g id="Group_1248" data-name="Group 1248">
      <path id="Path_6306" data-name="Path 6306" d="M83.018,0H70.374a2.107,2.107,0,0,0-2.107,2.107.7.7,0,1,0,1.4,0,.7.7,0,0,1,.7-.7H83.018a.7.7,0,0,1,.7.7V14.751a.7.7,0,0,1-.7.7.7.7,0,0,0,0,1.4,2.107,2.107,0,0,0,2.107-2.107V2.107A2.107,2.107,0,0,0,83.018,0Z" transform="translate(-68.267)" fill="#606060"/>
    </g>
  </g>
</svg>
